<?xml version="1.0" standalone="no"?>
<!DOCTYPE svg PUBLIC "-//W3C//DTD SVG 20010904//EN"
 "http://www.w3.org/TR/2001/REC-SVG-20010904/DTD/svg10.dtd">
<svg version="1.0" xmlns="http://www.w3.org/2000/svg"
 width="471.000000pt" height="178.000000pt" viewBox="0 0 471.000000 178.000000"
 preserveAspectRatio="xMidYMid meet">
<metadata>
Created by potrace 1.15, written by Peter Selinger 2001-2017
</metadata>
<g transform="translate(0.000000,178.000000) scale(0.100000,-0.100000)"
fill="#009ACF" stroke="none">
<path d="M4368 1739 c-34 -19 -43 -53 -48 -174 l-5 -120 -46 -22 c-31 -14 -50
-31 -59 -52 l-12 -31 -22 32 c-43 64 -187 92 -343 68 -68 -11 -97 -21 -142
-50 -52 -35 -204 -184 -298 -293 -45 -52 -45 -52 -58 28 -18 109 -120 242
-219 286 -114 50 -280 47 -392 -8 -64 -31 -142 -110 -177 -179 -29 -58 -57
-181 -57 -251 0 -67 25 -175 54 -239 32 -69 120 -158 189 -189 124 -57 291
-55 412 4 71 35 110 75 280 287 162 202 366 407 421 422 57 16 133 15 184 -3
68 -24 104 -20 134 16 14 17 26 35 26 41 0 6 10 -4 23 -22 12 -19 40 -43 62
-54 l40 -21 5 -310 c5 -332 7 -341 57 -364 32 -15 59 -14 92 3 48 26 51 44 51
365 0 276 1 299 18 314 10 10 33 17 51 17 46 0 91 46 91 93 0 45 -40 87 -84
87 -64 0 -70 14 -76 155 -5 124 -6 127 -33 151 -30 26 -87 32 -119 13z m-1363
-480 c25 -7 56 -28 83 -56 35 -36 43 -50 40 -76 l-3 -32 -195 0 -195 0 -3 23
c-6 39 43 101 101 128 57 26 110 30 172 13z m238 -341 c-6 -7 -40 -52 -77
-100 -83 -109 -116 -130 -210 -136 -64 -3 -77 -1 -126 25 -39 21 -63 42 -83
75 -34 54 -47 126 -26 139 8 5 130 9 273 9 205 0 256 -3 249 -12z"/>
<path d="M360 1440 c-160 -34 -282 -160 -320 -331 -18 -82 -9 -259 18 -333 41
-113 130 -203 246 -249 41 -17 74 -21 166 -21 199 0 270 44 431 262 56 75 139
180 184 232 109 128 239 290 254 318 23 42 -6 104 -58 123 -49 19 -83 -5 -172
-121 -46 -60 -90 -111 -96 -114 -24 -10 -39 5 -123 114 -61 80 -93 113 -116
120 -34 12 -71 2 -92 -23 -11 -13 -19 -13 -64 5 -60 22 -192 32 -258 18z m173
-181 c75 -20 156 -119 127 -154 -10 -12 -45 -15 -195 -15 -205 0 -218 4 -196
59 38 90 157 140 264 110z m247 -337 c0 -4 -36 -52 -81 -106 -90 -109 -131
-135 -214 -136 -107 0 -179 44 -221 135 -27 56 -30 85 -12 103 14 14 528 18
528 4z"/>
<path d="M1865 1430 c-33 -11 -84 -38 -113 -60 -59 -45 -62 -46 -62 -24 0 8
-13 29 -29 45 -51 51 -137 33 -160 -33 -7 -21 -11 -229 -11 -630 0 -521 2
-604 15 -633 30 -61 107 -74 156 -26 l29 29 0 266 c0 146 4 266 8 266 5 0 21
-13 36 -29 68 -71 199 -109 312 -91 212 34 355 223 353 465 -2 324 -259 543
-534 455z m157 -172 c95 -28 167 -134 176 -259 9 -130 -47 -240 -148 -292 -48
-25 -63 -28 -121 -24 -117 8 -201 77 -235 194 -31 106 -3 246 64 317 61 65
171 92 264 64z"/>
<path d="M1133 884 c-26 -30 -51 -61 -55 -68 -9 -16 160 -234 196 -253 57 -30
126 16 126 82 0 23 -12 48 -37 82 -106 138 -167 213 -174 213 -4 0 -29 -25
-56 -56z"/>
<path d="M3590 847 c-36 -44 -69 -86 -73 -94 -12 -19 52 -104 112 -148 144
-105 334 -132 491 -69 40 16 70 55 70 89 0 30 -29 72 -59 85 -25 10 -39 9 -90
-9 -118 -41 -223 -20 -302 59 -35 36 -52 63 -66 107 l-18 60 -65 -80z"/>
</g>
</svg>
