<?xml version="1.0" standalone="no"?>
<!DOCTYPE svg PUBLIC "-//W3C//DTD SVG 20010904//EN"
 "http://www.w3.org/TR/2001/REC-SVG-20010904/DTD/svg10.dtd">
<svg version="1.0" xmlns="http://www.w3.org/2000/svg"
 width="96.000000pt" height="96.000000pt" viewBox="0 0 96.000000 96.000000"
 preserveAspectRatio="xMidYMid meet">
<metadata>
Created by potrace 1.15, written by Peter Selinger 2001-2017
</metadata>
<g transform="translate(0.000000,96.000000) scale(0.100000,-0.100000)"
fill="#009acf" stroke="none">
<path d="M255 784 c-139 -35 -215 -141 -215 -301 0 -207 173 -344 366 -288 81
23 112 50 208 178 46 62 92 121 103 132 56 59 173 215 173 231 0 28 -12 42
-40 48 -31 8 -33 6 -103 -81 -34 -43 -65 -73 -76 -73 -11 0 -41 29 -74 74 -62
82 -85 96 -123 72 -18 -12 -29 -14 -43 -6 -22 11 -146 21 -176 14z m117 -104
c64 -18 116 -107 72 -124 -9 -3 -64 -6 -124 -6 -60 0 -115 3 -124 6 -30 11
-19 60 19 91 53 42 93 50 157 33z m165 -225 c6 -19 -116 -153 -149 -164 -97
-34 -198 21 -224 123 -12 51 8 57 200 54 106 -2 171 -7 173 -13z"/>
<path d="M762 413 l-30 -37 60 -78 c45 -57 67 -78 84 -78 27 0 54 24 54 50 0
15 -123 180 -134 180 -2 0 -18 -17 -34 -37z"/>
</g>
</svg>
