<?xml version="1.0" encoding="utf-8"?>
<!-- Generator: Adobe Illustrator 19.2.1, SVG Export Plug-In . SVG Version: 6.00 Build 0)  -->
<svg version="1.1" id="layer" xmlns="http://www.w3.org/2000/svg" xmlns:xlink="http://www.w3.org/1999/xlink" x="0px" y="0px"
	 viewBox="0 0 652 652" style="enable-background:new 0 0 652 652;" xml:space="preserve">
<style type="text/css">
	.st0{fill:#618ECA;}
	.st1{fill:#749BD1;}
	.st2{fill:#F1F7FC;}
</style>
<path class="st0" d="M272,325.5c0-21,15.7-35.4,35.9-35.4c13.8,0,22.4,7.2,27.5,15.4l-10.3,5.2c-3.3-5.6-9.8-9.9-17.2-9.9
	c-13.5,0-23.6,10.4-23.6,24.7c0,14.4,10.1,24.7,23.6,24.7c7.4,0,14-4.2,17.2-9.9l10.3,5.2c-5.2,8.2-13.6,15.4-27.5,15.4
	C287.7,360.9,272,346.5,272,325.5"/>
<rect x="344.7" y="291.2" class="st0" width="10.8" height="68.4"/>
<path class="st0" d="M366.4,334.8c0-14.4,10.5-25.9,25.1-25.9c14.9,0,24.4,11.4,24.4,27v2.6h-38.2c0.8,7.5,6.5,13.6,15.8,13.6
	c4.8,0,10.6-2,14-5.4l4.9,7.1c-4.9,4.7-12.2,7.2-20.1,7.2C377.4,360.9,366.4,350.5,366.4,334.8 M391.5,317.7
	c-9.2,0-13.4,7.1-13.9,13.1h27.9C405.2,325,401.2,317.7,391.5,317.7"/>
<path class="st0" d="M456.8,359.6v-5.3c-3.7,4.2-9.4,6.6-16,6.6c-8.1,0-17.2-5.4-17.2-16.4c0-11.4,9.1-16.1,17.2-16.1
	c6.7,0,12.4,2.1,16,6.4v-7.4c0-5.7-4.7-9.2-11.6-9.2c-5.5,0-10.4,2.1-14.7,6.3l-4.4-7.5c5.7-5.4,12.9-8,20.8-8
	c11,0,20.6,4.6,20.6,17.9v32.8H456.8z M456.8,348.3v-7.5c-2.5-3.4-7.1-5.1-11.8-5.1c-6,0-10.6,3.5-10.6,8.9c0,5.3,4.5,8.8,10.6,8.8
	C449.7,353.5,454.3,351.7,456.8,348.3"/>
<path class="st0" d="M481.5,359.6v-49.5h10.8v7.3c3.7-4.7,9.6-8.4,16.1-8.4v10.7c-0.9-0.2-2.1-0.3-3.4-0.3c-4.5,0-10.6,3.1-12.7,6.6
	v33.7H481.5z"/>
<path class="st0" d="M517.1,359.6v-68.4h10.8V317c3.9-5.2,9.6-8.1,15.9-8.1c12.7,0,21.9,10,21.9,26c0,16.3-9.3,25.9-21.9,25.9
	c-6.5,0-12.1-3.1-15.9-8v6.8H517.1z M540.6,351.3c8.6,0,14-6.8,14-16.4c0-9.6-5.4-16.5-14-16.5c-5,0-10.4,3.1-12.7,6.8v19.6
	C530.2,348.4,535.5,351.3,540.6,351.3"/>
<path class="st0" d="M575.3,297.4c0-3.7,3.1-6.7,6.7-6.7c3.7,0,6.7,3,6.7,6.7c0,3.7-3,6.7-6.7,6.7
	C578.4,304,575.3,301.1,575.3,297.4 M576.6,310.1h10.8v49.5h-10.8V310.1z"/>
<path class="st0" d="M603.5,348.1v-28.6h-8.2v-9.4h8.2v-13.5h10.8v13.5h10.1v9.4h-10.1v25.9c0,3.4,1.7,5.9,4.7,5.9
	c2.1,0,4-0.8,4.8-1.8l2.6,8.1c-1.9,1.9-5.1,3.2-10.2,3.2C607.9,360.9,603.5,356.3,603.5,348.1"/>
<path class="st0" d="M163.7,408.8H54.5c-15.5,0-28.1-12.7-28.1-28.1V271.5c0-15.5,12.7-28.1,28.1-28.1h109.2
	c15.5,0,28.1,12.7,28.1,28.1v109.2C191.9,396.2,179.2,408.8,163.7,408.8"/>
<path class="st1" d="M163.7,243.3h-54.6v82.7h82.7v-54.6C191.9,256,179.2,243.3,163.7,243.3"/>
<path class="st2" d="M109.1,408.8h54.6c15.5,0,28.1-12.7,28.1-28.1v-54.6h-82.7V408.8z"/>
</svg>
